ffmpeg started on 2025-05-03 at 14:28:50
Report written to "D:\Convert\FFMetrics\reports\psnr_report-6.txt"
Log level: 32
Command line:
ffmpeg -hide_banner -nostdin -i "E:\\Convert\\files\\1\\FBS NF 124 (1080P AVC)_HEVC(0).mkv" -i "E:\\Convert\\files\\1\\FBS NF 124 (1080P AVC).mp4" -lavfi "[0:v]settb=AVTB,setpts=PTS-STARTPTS,format=pix_fmts=yuv420p10,fps=25/1,scale=1920:804:flags=bicubic[main];[1:v]settb=AVTB,setpts=PTS-STARTPTS,format=pix_fmts=yuv420p,fps=25/1,scale=1920:804:flags=bicubic[ref];[main][ref]psnr=eof_action=endall:stats_file='D\\:/Convert/FFMetrics/logs/psnr_logfile-6.txt'" -f null -
Input #0, matroska,webm, from 'E:\Convert\files\1\FBS NF 124 (1080P AVC)_HEVC(0).mkv':
  Metadata:
    COMPATIBLE_BRANDS: mp42mp41
    MAJOR_BRAND     : mp42
    MINOR_VERSION   : 0
    ENCODER         : Lavf61.7.100
  Duration: 00:22:02.88, start: -0.021000, bitrate: 3551 kb/s
  Stream #0:0(eng): Video: hevc (Main 10), yuv420p10le(tv, bt709, progressive), 1920x804 [SAR 1:1 DAR 160:67], 25 fps, 25 tbr, 1k tbn (default)
      Metadata:
        HANDLER_NAME    : Mainconcept Video Media Handler
        VENDOR_ID       : [0][0][0][0]
        ENCODER         : Lavc61.19.100 libx265
        BPS             : 3356957
        DURATION        : 00:22:02.840000000
        NUMBER_OF_FRAMES: 33071
        NUMBER_OF_BYTES : 555089673
        _STATISTICS_WRITING_APP: mkvpropedit v66.0.0 ('Josie') 64-bit
        _STATISTICS_WRITING_DATE_UTC: 2025-05-03 11:20:28
        _STATISTICS_TAGS: BPS DURATION NUMBER_OF_FRAMES NUMBER_OF_BYTES
  Stream #0:1(eng): Audio: aac (LC), 48000 Hz, stereo, fltp (default)
      Metadata:
        HANDLER_NAME    : #Mainconcept MP4 Sound Media Handler
        VENDOR_ID       : [0][0][0][0]
        ENCODER         : Lavc61.19.100 aac
        BPS             : 189986
        DURATION        : 00:22:02.858000000
        NUMBER_OF_FRAMES: 62010
        NUMBER_OF_BYTES : 31415714
        _STATISTICS_WRITING_APP: mkvpropedit v66.0.0 ('Josie') 64-bit
        _STATISTICS_WRITING_DATE_UTC: 2025-05-03 11:20:28
        _STATISTICS_TAGS: BPS DURATION NUMBER_OF_FRAMES NUMBER_OF_BYTES
Input #1, mov,mp4,m4a,3gp,3g2,mj2, from 'E:\Convert\files\1\FBS NF 124 (1080P AVC).mp4':
  Metadata:
    major_brand     : mp42
    minor_version   : 0
    compatible_brands: mp42mp41
    creation_time   : 2024-12-09T14:39:16.000000Z
  Duration: 00:22:02.84, start: 0.000000, bitrate: 5643 kb/s
  Stream #1:0[0x1](eng): Video: h264 (Main) (avc1 / 0x31637661), yuv420p(tv, bt709, progressive), 1920x804, 5513 kb/s, 25 fps, 25 tbr, 25k tbn (default)
      Metadata:
        creation_time   : 2024-12-09T14:39:16.000000Z
        handler_name    : Mainconcept Video Media Handler
        vendor_id       : [0][0][0][0]
        encoder         : AVC Coding
  Stream #1:1[0x2](eng): Audio: aac (LC) (mp4a / 0x6134706D), 48000 Hz, stereo, fltp, 125 kb/s (default)
      Metadata:
        creation_time   : 2024-12-09T14:39:16.000000Z
        handler_name    : #Mainconcept MP4 Sound Media Handler
        vendor_id       : [0][0][0][0]
Stream mapping:
  Stream #0:0 (hevc) -> settb:default
  Stream #1:0 (h264) -> settb:default
  psnr:default -> Stream #0:0 (wrapped_avframe)
  Stream #0:1 -> #0:1 (aac (native) -> pcm_s16le (native))
Output #0, null, to 'pipe:':
  Metadata:
    COMPATIBLE_BRANDS: mp42mp41
    MAJOR_BRAND     : mp42
    MINOR_VERSION   : 0
    encoder         : Lavf61.7.100
  Stream #0:0: Video: wrapped_avframe, yuv420p10le(tv, bt709, progressive), 1920x804 [SAR 1:1 DAR 160:67], q=2-31, 200 kb/s, 25 fps, 25 tbn
      Metadata:
        encoder         : Lavc61.19.100 wrapped_avframe
  Stream #0:1(eng): Audio: pcm_s16le, 48000 Hz, stereo, s16, 1536 kb/s (default)
      Metadata:
        HANDLER_NAME    : #Mainconcept MP4 Sound Media Handler
        VENDOR_ID       : [0][0][0][0]
        _STATISTICS_TAGS: BPS DURATION NUMBER_OF_FRAMES NUMBER_OF_BYTES
        BPS             : 189986
        DURATION        : 00:22:02.858000000
        NUMBER_OF_FRAMES: 62010
        NUMBER_OF_BYTES : 31415714
        _STATISTICS_WRITING_APP: mkvpropedit v66.0.0 ('Josie') 64-bit
        _STATISTICS_WRITING_DATE_UTC: 2025-05-03 11:20:28
        encoder         : Lavc61.19.100 pcm_s16le
frame=  200 fps=0.0 q=-0.0 size=N/A time=00:00:08.00 bitrate=N/A speed=15.7x    frame=  322 fps=312 q=-0.0 size=N/A time=00:00:12.88 bitrate=N/A speed=12.5x    frame=  484 fps=315 q=-0.0 size=N/A time=00:00:19.36 bitrate=N/A speed=12.6x    frame=  705 fps=341 q=-0.0 size=N/A time=00:00:28.20 bitrate=N/A speed=13.7x    frame= 1073 fps=418 q=-0.0 size=N/A time=00:00:42.92 bitrate=N/A speed=16.7x    frame= 1369 fps=442 q=-0.0 size=N/A time=00:00:54.76 bitrate=N/A speed=17.7x    frame= 1519 fps=422 q=-0.0 size=N/A time=00:01:00.76 bitrate=N/A speed=16.9x    frame= 1672 fps=405 q=-0.0 size=N/A time=00:01:06.88 bitrate=N/A speed=16.2x    frame= 1840 fps=396 q=-0.0 size=N/A time=00:01:13.60 bitrate=N/A speed=15.8x    frame= 2067 fps=401 q=-0.0 size=N/A time=00:01:22.68 bitrate=N/A speed=  16x    frame= 2290 fps=403 q=-0.0 size=N/A time=00:01:31.60 bitrate=N/A speed=16.1x    frame= 2492 fps=403 q=-0.0 size=N/A time=00:01:39.68 bitrate=N/A speed=16.1x    frame= 2652 fps=396 q=-0.0 size=N/A time=00:01:46.08 bitrate=N/A speed=15.8x    frame= 2832 fps=392 q=-0.0 size=N/A time=00:01:53.28 bitrate=N/A speed=15.7x    frame= 3005 fps=389 q=-0.0 size=N/A time=00:02:00.20 bitrate=N/A speed=15.5x    frame= 3154 fps=382 q=-0.0 size=N/A time=00:02:06.16 bitrate=N/A speed=15.3x    frame= 3334 fps=380 q=-0.0 size=N/A time=00:02:13.36 bitrate=N/A speed=15.2x    frame= 3561 fps=384 q=-0.0 size=N/A time=00:02:22.44 bitrate=N/A speed=15.4x    frame= 3781 fps=386 q=-0.0 size=N/A time=00:02:31.24 bitrate=N/A speed=15.4x    frame= 3910 fps=379 q=-0.0 size=N/A time=00:02:36.40 bitrate=N/A speed=15.2x    frame= 4056 fps=375 q=-0.0 size=N/A time=00:02:42.24 bitrate=N/A speed=  15x    frame= 4201 fps=371 q=-0.0 size=N/A time=00:02:48.04 bitrate=N/A speed=14.8x    frame= 4352 fps=367 q=-0.0 size=N/A time=00:02:54.08 bitrate=N/A speed=14.7x    frame= 4497 fps=363 q=-0.0 size=N/A time=00:02:59.88 bitrate=N/A speed=14.5x    frame= 4664 fps=362 q=-0.0 size=N/A time=00:03:06.56 bitrate=N/A speed=14.5x    frame= 4781 fps=357 q=-0.0 size=N/A time=00:03:11.24 bitrate=N/A speed=14.3x    frame= 4966 fps=357 q=-0.0 size=N/A time=00:03:18.64 bitrate=N/A speed=14.3x    frame= 5197 fps=360 q=-0.0 size=N/A time=00:03:27.88 bitrate=N/A speed=14.4x    frame= 5370 fps=359 q=-0.0 size=N/A time=00:03:34.80 bitrate=N/A speed=14.4x    frame= 5540 fps=358 q=-0.0 size=N/A time=00:03:41.60 bitrate=N/A speed=14.3x    frame= 5670 fps=355 q=-0.0 size=N/A time=00:03:46.80 bitrate=N/A speed=14.2x    frame= 5801 fps=351 q=-0.0 size=N/A time=00:03:52.04 bitrate=N/A speed=14.1x    frame= 5983 fps=352 q=-0.0 size=N/A time=00:03:59.32 bitrate=N/A speed=14.1x    frame= 6166 fps=352 q=-0.0 size=N/A time=00:04:06.64 bitrate=N/A speed=14.1x    frame= 6373 fps=353 q=-0.0 size=N/A time=00:04:14.92 bitrate=N/A speed=14.1x    frame= 6552 fps=353 q=-0.0 size=N/A time=00:04:22.08 bitrate=N/A speed=14.1x    frame= 6764 fps=355 q=-0.0 size=N/A time=00:04:30.56 bitrate=N/A speed=14.2x    frame= 6923 fps=353 q=-0.0 size=N/A time=00:04:36.92 bitrate=N/A speed=14.1x    frame= 7122 fps=354 q=-0.0 size=N/A time=00:04:44.88 bitrate=N/A speed=14.2x    frame= 7281 fps=353 q=-0.0 size=N/A time=00:04:51.24 bitrate=N/A speed=14.1x    frame= 7490 fps=354 q=-0.0 size=N/A time=00:04:59.60 bitrate=N/A speed=14.2x    frame= 7732 fps=357 q=-0.0 size=N/A time=00:05:09.28 bitrate=N/A speed=14.3x    frame= 7926 fps=357 q=-0.0 size=N/A time=00:05:17.04 bitrate=N/A speed=14.3x    frame= 8095 fps=356 q=-0.0 size=N/A time=00:05:23.80 bitrate=N/A speed=14.3x    frame= 8242 fps=355 q=-0.0 size=N/A time=00:05:29.68 bitrate=N/A speed=14.2x    frame= 8409 fps=354 q=-0.0 size=N/A time=00:05:36.36 bitrate=N/A speed=14.2x    frame= 8599 fps=355 q=-0.0 size=N/A time=00:05:43.96 bitrate=N/A speed=14.2x    frame= 8754 fps=354 q=-0.0 size=N/A time=00:05:50.16 bitrate=N/A speed=14.1x    frame= 8922 fps=353 q=-0.0 size=N/A time=00:05:56.88 bitrate=N/A speed=14.1x    frame= 9147 fps=355 q=-0.0 size=N/A time=00:06:05.88 bitrate=N/A speed=14.2x    frame= 9362 fps=356 q=-0.0 size=N/A time=00:06:14.48 bitrate=N/A speed=14.2x    frame= 9523 fps=355 q=-0.0 size=N/A time=00:06:20.92 bitrate=N/A speed=14.2x    frame= 9759 fps=357 q=-0.0 size=N/A time=00:06:30.36 bitrate=N/A speed=14.3x    frame= 9971 fps=358 q=-0.0 size=N/A time=00:06:38.84 bitrate=N/A speed=14.3x    frame=10175 fps=359 q=-0.0 size=N/A time=00:06:47.00 bitrate=N/A speed=14.3x    frame=10355 fps=358 q=-0.0 size=N/A time=00:06:54.20 bitrate=N/A speed=14.3x    frame=10535 fps=358 q=-0.0 size=N/A time=00:07:01.40 bitrate=N/A speed=14.3x    frame=10718 fps=358 q=-0.0 size=N/A time=00:07:08.72 bitrate=N/A speed=14.3x    frame=10922 fps=359 q=-0.0 size=N/A time=00:07:16.88 bitrate=N/A speed=14.4x    frame=11135 fps=360 q=-0.0 size=N/A time=00:07:25.40 bitrate=N/A speed=14.4x    frame=11309 fps=359 q=-0.0 size=N/A time=00:07:32.36 bitrate=N/A speed=14.4x    frame=11487 fps=359 q=-0.0 size=N/A time=00:07:39.48 bitrate=N/A speed=14.4x    frame=11676 fps=359 q=-0.0 size=N/A time=00:07:47.04 bitrate=N/A speed=14.4x    frame=11842 fps=359 q=-0.0 size=N/A time=00:07:53.68 bitrate=N/A speed=14.3x    frame=12026 fps=359 q=-0.0 size=N/A time=00:08:01.04 bitrate=N/A speed=14.3x    frame=12213 fps=359 q=-0.0 size=N/A time=00:08:08.52 bitrate=N/A speed=14.3x    frame=12409 fps=359 q=-0.0 size=N/A time=00:08:16.36 bitrate=N/A speed=14.4x    frame=12623 fps=360 q=-0.0 size=N/A time=00:08:24.92 bitrate=N/A speed=14.4x    frame=12805 fps=360 q=-0.0 size=N/A time=00:08:32.20 bitrate=N/A speed=14.4x    frame=12996 fps=360 q=-0.0 size=N/A time=00:08:39.84 bitrate=N/A speed=14.4x    frame=13222 fps=361 q=-0.0 size=N/A time=00:08:48.88 bitrate=N/A speed=14.4x    frame=13403 fps=361 q=-0.0 size=N/A time=00:08:56.12 bitrate=N/A speed=14.4x    frame=13592 fps=361 q=-0.0 size=N/A time=00:09:03.68 bitrate=N/A speed=14.4x    frame=13788 fps=361 q=-0.0 size=N/A time=00:09:11.52 bitrate=N/A speed=14.4x    frame=14014 fps=362 q=-0.0 size=N/A time=00:09:20.56 bitrate=N/A speed=14.5x    frame=14223 fps=363 q=-0.0 size=N/A time=00:09:28.92 bitrate=N/A speed=14.5x    frame=14387 fps=362 q=-0.0 size=N/A time=00:09:35.48 bitrate=N/A speed=14.5x    frame=14584 fps=363 q=-0.0 size=N/A time=00:09:43.36 bitrate=N/A speed=14.5x    frame=14790 fps=363 q=-0.0 size=N/A time=00:09:51.60 bitrate=N/A speed=14.5x    frame=14968 fps=363 q=-0.0 size=N/A time=00:09:58.72 bitrate=N/A speed=14.5x    frame=15197 fps=364 q=-0.0 size=N/A time=00:10:07.88 bitrate=N/A speed=14.5x    frame=15416 fps=364 q=-0.0 size=N/A time=00:10:16.64 bitrate=N/A speed=14.6x    frame=15579 fps=364 q=-0.0 size=N/A time=00:10:23.16 bitrate=N/A speed=14.6x    frame=15820 fps=365 q=-0.0 size=N/A time=00:10:32.80 bitrate=N/A speed=14.6x    frame=16028 fps=366 q=-0.0 size=N/A time=00:10:41.12 bitrate=N/A speed=14.6x    frame=16277 fps=367 q=-0.0 size=N/A time=00:10:51.08 bitrate=N/A speed=14.7x    frame=16498 fps=368 q=-0.0 size=N/A time=00:10:59.92 bitrate=N/A speed=14.7x    frame=16696 fps=368 q=-0.0 size=N/A time=00:11:07.84 bitrate=N/A speed=14.7x    frame=16886 fps=368 q=-0.0 size=N/A time=00:11:15.44 bitrate=N/A speed=14.7x    frame=17094 fps=368 q=-0.0 size=N/A time=00:11:23.76 bitrate=N/A speed=14.7x    frame=17314 fps=369 q=-0.0 size=N/A time=00:11:32.56 bitrate=N/A speed=14.8x    frame=17503 fps=369 q=-0.0 size=N/A time=00:11:40.12 bitrate=N/A speed=14.8x    frame=17692 fps=369 q=-0.0 size=N/A time=00:11:47.68 bitrate=N/A speed=14.7x    frame=17904 fps=369 q=-0.0 size=N/A time=00:11:56.16 bitrate=N/A speed=14.8x    frame=18084 fps=369 q=-0.0 size=N/A time=00:12:03.36 bitrate=N/A speed=14.8x    frame=18229 fps=368 q=-0.0 size=N/A time=00:12:09.16 bitrate=N/A speed=14.7x    frame=18449 fps=369 q=-0.0 size=N/A time=00:12:17.96 bitrate=N/A speed=14.7x    frame=18633 fps=368 q=-0.0 size=N/A time=00:12:25.32 bitrate=N/A speed=14.7x    frame=18838 fps=369 q=-0.0 size=N/A time=00:12:33.52 bitrate=N/A speed=14.8x    frame=19037 fps=369 q=-0.0 size=N/A time=00:12:41.48 bitrate=N/A speed=14.8x    frame=19213 fps=369 q=-0.0 size=N/A time=00:12:48.52 bitrate=N/A speed=14.7x    frame=19453 fps=370 q=-0.0 size=N/A time=00:12:58.12 bitrate=N/A speed=14.8x    frame=19684 fps=370 q=-0.0 size=N/A time=00:13:07.36 bitrate=N/A speed=14.8x    frame=19942 fps=372 q=-0.0 size=N/A time=00:13:17.68 bitrate=N/A speed=14.9x    frame=20133 fps=372 q=-0.0 size=N/A time=00:13:25.32 bitrate=N/A speed=14.9x    frame=20379 fps=373 q=-0.0 size=N/A time=00:13:35.16 bitrate=N/A speed=14.9x    frame=20578 fps=373 q=-0.0 size=N/A time=00:13:43.12 bitrate=N/A speed=14.9x    frame=20801 fps=373 q=-0.0 size=N/A time=00:13:52.04 bitrate=N/A speed=14.9x    frame=21045 fps=374 q=-0.0 size=N/A time=00:14:01.80 bitrate=N/A speed=  15x    frame=21251 fps=374 q=-0.0 size=N/A time=00:14:10.04 bitrate=N/A speed=  15x    frame=21424 fps=374 q=-0.0 size=N/A time=00:14:16.96 bitrate=N/A speed=  15x    frame=21650 fps=375 q=-0.0 size=N/A time=00:14:26.00 bitrate=N/A speed=  15x    frame=21897 fps=376 q=-0.0 size=N/A time=00:14:35.88 bitrate=N/A speed=  15x    frame=22141 fps=376 q=-0.0 size=N/A time=00:14:45.64 bitrate=N/A speed=15.1x    frame=22378 fps=377 q=-0.0 size=N/A time=00:14:55.12 bitrate=N/A speed=15.1x    frame=22610 fps=378 q=-0.0 size=N/A time=00:15:04.40 bitrate=N/A speed=15.1x    frame=22832 fps=378 q=-0.0 size=N/A time=00:15:13.28 bitrate=N/A speed=15.1x    frame=23048 fps=379 q=-0.0 size=N/A time=00:15:21.92 bitrate=N/A speed=15.1x    frame=23228 fps=378 q=-0.0 size=N/A time=00:15:29.12 bitrate=N/A speed=15.1x    frame=23383 fps=378 q=-0.0 size=N/A time=00:15:35.32 bitrate=N/A speed=15.1x    frame=23565 fps=378 q=-0.0 size=N/A time=00:15:42.60 bitrate=N/A speed=15.1x    frame=23731 fps=377 q=-0.0 size=N/A time=00:15:49.24 bitrate=N/A speed=15.1x    frame=23942 fps=377 q=-0.0 size=N/A time=00:15:57.68 bitrate=N/A speed=15.1x    frame=24134 fps=377 q=-0.0 size=N/A time=00:16:05.36 bitrate=N/A speed=15.1x    frame=24326 fps=377 q=-0.0 size=N/A time=00:16:13.04 bitrate=N/A speed=15.1x    frame=24554 fps=378 q=-0.0 size=N/A time=00:16:22.16 bitrate=N/A speed=15.1x    frame=24753 fps=378 q=-0.0 size=N/A time=00:16:30.12 bitrate=N/A speed=15.1x    frame=24964 fps=378 q=-0.0 size=N/A time=00:16:38.56 bitrate=N/A speed=15.1x    frame=25191 fps=379 q=-0.0 size=N/A time=00:16:47.64 bitrate=N/A speed=15.1x    frame=25404 fps=379 q=-0.0 size=N/A time=00:16:56.16 bitrate=N/A speed=15.2x    frame=25589 fps=379 q=-0.0 size=N/A time=00:17:03.56 bitrate=N/A speed=15.1x    frame=25773 fps=378 q=-0.0 size=N/A time=00:17:10.92 bitrate=N/A speed=15.1x    frame=25961 fps=378 q=-0.0 size=N/A time=00:17:18.44 bitrate=N/A speed=15.1x    frame=26181 fps=379 q=-0.0 size=N/A time=00:17:27.24 bitrate=N/A speed=15.2x    frame=26377 fps=379 q=-0.0 size=N/A time=00:17:35.08 bitrate=N/A speed=15.1x    frame=26565 fps=379 q=-0.0 size=N/A time=00:17:42.60 bitrate=N/A speed=15.1x    frame=26745 fps=378 q=-0.0 size=N/A time=00:17:49.80 bitrate=N/A speed=15.1x    frame=26971 fps=379 q=-0.0 size=N/A time=00:17:58.84 bitrate=N/A speed=15.2x    frame=27197 fps=379 q=-0.0 size=N/A time=00:18:07.88 bitrate=N/A speed=15.2x    frame=27432 fps=380 q=-0.0 size=N/A time=00:18:17.28 bitrate=N/A speed=15.2x    frame=27658 fps=380 q=-0.0 size=N/A time=00:18:26.32 bitrate=N/A speed=15.2x    frame=27885 fps=381 q=-0.0 size=N/A time=00:18:35.40 bitrate=N/A speed=15.2x    frame=28063 fps=380 q=-0.0 size=N/A time=00:18:42.52 bitrate=N/A speed=15.2x    frame=28275 fps=381 q=-0.0 size=N/A time=00:18:51.00 bitrate=N/A speed=15.2x    frame=28457 fps=380 q=-0.0 size=N/A time=00:18:58.28 bitrate=N/A speed=15.2x    frame=28648 fps=380 q=-0.0 size=N/A time=00:19:05.92 bitrate=N/A speed=15.2x    frame=28902 fps=381 q=-0.0 size=N/A time=00:19:16.08 bitrate=N/A speed=15.2x    frame=29123 fps=381 q=-0.0 size=N/A time=00:19:24.92 bitrate=N/A speed=15.3x    frame=29334 fps=382 q=-0.0 size=N/A time=00:19:33.36 bitrate=N/A speed=15.3x    frame=29580 fps=382 q=-0.0 size=N/A time=00:19:43.20 bitrate=N/A speed=15.3x    frame=29814 fps=383 q=-0.0 size=N/A time=00:19:52.56 bitrate=N/A speed=15.3x    frame=30039 fps=383 q=-0.0 size=N/A time=00:20:01.56 bitrate=N/A speed=15.3x    frame=30255 fps=383 q=-0.0 size=N/A time=00:20:10.20 bitrate=N/A speed=15.3x    frame=30462 fps=383 q=-0.0 size=N/A time=00:20:18.48 bitrate=N/A speed=15.3x    frame=30658 fps=383 q=-0.0 size=N/A time=00:20:26.32 bitrate=N/A speed=15.3x    frame=30909 fps=384 q=-0.0 size=N/A time=00:20:36.36 bitrate=N/A speed=15.4x    frame=31123 fps=384 q=-0.0 size=N/A time=00:20:44.92 bitrate=N/A speed=15.4x    frame=31346 fps=385 q=-0.0 size=N/A time=00:20:53.84 bitrate=N/A speed=15.4x    frame=31559 fps=385 q=-0.0 size=N/A time=00:21:02.36 bitrate=N/A speed=15.4x    frame=31805 fps=385 q=-0.0 size=N/A time=00:21:12.20 bitrate=N/A speed=15.4x    frame=32059 fps=386 q=-0.0 size=N/A time=00:21:22.36 bitrate=N/A speed=15.4x    frame=32226 fps=386 q=-0.0 size=N/A time=00:21:29.04 bitrate=N/A speed=15.4x    frame=32394 fps=385 q=-0.0 size=N/A time=00:21:35.76 bitrate=N/A speed=15.4x    frame=32638 fps=386 q=-0.0 size=N/A time=00:21:45.52 bitrate=N/A speed=15.4x    frame=33060 fps=388 q=-0.0 size=N/A time=00:22:02.40 bitrate=N/A speed=15.5x    [Parsed_psnr_10 @ 00000222a40e9f00] PSNR y:42.928851 u:47.192682 v:48.112756 average:44.009985 min:31.617459 max:inf
[out#0/null @ 00000222a407a600] video:14210KiB audio:248040KiB subtitle:0KiB other streams:0KiB global headers:0KiB muxing overhead: unknown
frame=33071 fps=388 q=-0.0 Lsize=N/A time=00:22:02.84 bitrate=N/A speed=15.5x    
